# xmcd
#
# Track frame offsets: 
#        150
#        19250
#        40702
#        61792
#        80255
#        99855
#        117210
#        137827
#        160385
#        182567
#        199652
#        223325
#        244952
#        262802
#        286820
#        299010
#
# Disc length: 4265 seconds
#
# Revision: 18
# Processed by: cddbd v1.5.2PL0 Copyright (c) Steve Scherf et al.
# Submitted via: ExactAudioCopy v1.3
#
DISCID=e410a710
DTITLE=許美靜 - Review 1996-1999 精選輯 [WCD2204]
DYEAR=1999
DGENRE=Asian Pop
TTITLE0=你抽的煙
TTITLE1=鐵窗
TTITLE2=遺憾
TTITLE3=顔色
TTITLE4=明知道
TTITLE5=影子情人
TTITLE6=快樂無罪
TTITLE7=都是夜歸人
TTITLE8=蔓延
TTITLE9=讓位
TTITLE10=蕩漾
TTITLE11=單數
TTITLE12=只是這一生
TTITLE13=城裡的月光
TTITLE14=發呆
TTITLE15=邊界1999
EXTD=YEAR: 1999
EXTT0=
EXTT1=
EXTT2=
EXTT3=
EXTT4=
EXTT5=
EXTT6=
EXTT7=
EXTT8=
EXTT9=
EXTT10=
EXTT11=
EXTT12=
EXTT13=
EXTT14=
EXTT15=
PLAYORDER=
